<svg width="88" height="88" viewBox="0 0 88 88" fill="none" xmlns="http://www.w3.org/2000/svg">
  <defs>
    <linearGradient id="bg" x1="12" y1="10" x2="76" y2="78" gradientUnits="userSpaceOnUse">
      <stop stop-color="#111827" />
      <stop offset="0.52" stop-color="#1F2937" />
      <stop offset="1" stop-color="#0F172A" />
    </linearGradient>
    <linearGradient id="frame" x1="14" y1="12" x2="78" y2="76" gradientUnits="userSpaceOnUse">
      <stop stop-color="#FB7185" />
      <stop offset="0.45" stop-color="#F97316" />
      <stop offset="1" stop-color="#FACC15" />
    </linearGradient>
    <linearGradient id="mark" x1="26" y1="24" x2="65" y2="60" gradientUnits="userSpaceOnUse">
      <stop stop-color="#FFF7ED" />
      <stop offset="0.35" stop-color="#FED7AA" />
      <stop offset="0.72" stop-color="#FB923C" />
      <stop offset="1" stop-color="#F43F5E" />
    </linearGradient>
    <linearGradient id="accent" x1="54" y1="14" x2="70" y2="31" gradientUnits="userSpaceOnUse">
      <stop stop-color="#FDE68A" />
      <stop offset="1" stop-color="#FB7185" />
    </linearGradient>
    <filter id="glow" x="0" y="0" width="88" height="88" filterUnits="userSpaceOnUse" color-interpolation-filters="sRGB">
      <feFlood flood-opacity="0" result="BackgroundImageFix" />
      <feColorMatrix in="SourceAlpha" type="matrix" values="0 0 0 0 0 0 0 0 0 0 0 0 0 0 0 0 0 0 127 0" result="hardAlpha" />
      <feOffset dy="6" />
      <feGaussianBlur stdDeviation="6" />
      <feComposite in2="hardAlpha" operator="out" />
      <feColorMatrix type="matrix" values="0 0 0 0 0.976471 0 0 0 0 0.45098 0 0 0 0 0.207843 0 0 0 0.34 0" />
      <feBlend mode="normal" in2="BackgroundImageFix" result="effect1_dropShadow_0_1" />
      <feBlend mode="normal" in="SourceGraphic" in2="effect1_dropShadow_0_1" result="shape" />
    </filter>
  </defs>

  <g filter="url(#glow)">
    <rect x="8" y="8" width="72" height="72" rx="22" fill="url(#bg)" />
    <rect x="10" y="10" width="68" height="68" rx="20" stroke="url(#frame)" stroke-width="2" stroke-opacity="0.75" />
    <path d="M18 30C18 23.3726 23.3726 18 30 18H58C64.6274 18 70 23.3726 70 30V38L61.5 28H26.5V59L35 69H30C23.3726 69 18 63.6274 18 57V30Z" fill="white" fill-opacity="0.05" />
    <path d="M24 62V24H36L44 38L52 24H64V62H52V42L46.5 51H41.5L36 42V62H24Z" fill="url(#mark)" />
    <path d="M52.5 16L68 20.5L58 34L46.5 29L52.5 16Z" fill="url(#accent)" />
    <circle cx="62" cy="26" r="2.5" fill="#111827" fill-opacity="0.9" />
  </g>
</svg>




